<?xml version="1.0" encoding="utf-8"?>
<!-- Generator: Adobe Illustrator 14.0.0, SVG Export Plug-In . SVG Version: 6.00 Build 43363)  -->
<!DOCTYPE svg PUBLIC "-//W3C//DTD SVG 1.1//EN" "http://www.w3.org/Graphics/SVG/1.1/DTD/svg11.dtd">
<svg version="1.1" id="Layer_1" xmlns="http://www.w3.org/2000/svg" xmlns:xlink="http://www.w3.org/1999/xlink" x="0px" y="0px"
	 width="127.834px" height="64px" viewBox="0 0 127.834 64" enable-background="new 0 0 127.834 64" xml:space="preserve">
<path id="Twitter__x28_alt_x29__2_" fill="#FFFFFF" d="M28.375,14.778c1.795-0.148,3.016-0.965,3.484-2.074
	c-0.648,0.398-2.66,0.836-3.773,0.418c-0.053-0.258-0.113-0.508-0.172-0.73c-0.85-3.113-3.746-5.617-6.785-5.313
	c0.244-0.098,0.494-0.195,0.742-0.277c0.336-0.117,2.299-0.438,1.988-1.133c-0.262-0.605-2.656,0.461-3.109,0.602
	c0.596-0.223,1.582-0.605,1.688-1.293c-0.914,0.125-1.809,0.555-2.502,1.188c0.25-0.273,0.439-0.602,0.479-0.953
	c-2.435,1.555-3.856,4.691-5.007,7.734c-0.904-0.879-1.705-1.566-2.423-1.949C10.968,9.915,8.556,8.79,4.772,7.384
	c-0.115,1.25,0.618,2.918,2.737,4.023c-0.458-0.063-1.298,0.074-1.968,0.234c0.272,1.438,1.165,2.617,3.583,3.188
	c-1.104,0.074-1.675,0.324-2.194,0.867c0.505,0.996,1.732,2.172,3.941,1.93c-2.455,1.059-1,3.02,0.996,2.727
	C8.462,23.872,3.086,23.614,0,20.669c8.056,10.98,25.57,6.496,28.18-4.082c1.957,0.02,3.109-0.68,3.82-1.441
	C30.873,15.337,29.24,15.138,28.375,14.778z"/>
<path id="Facebook__x28_alt_x29__3_" fill="#FFFFFF" d="M64,5.334C64,2.533,61.469,0,58.668,0H37.335C34.531,0,32,2.533,32,5.334
	v21.334C32,29.471,34.531,32,37.335,32H48V19.914h-3.91V14.58H48V12.5c0-3.582,2.691-6.811,6-6.811h4.313v5.334H54
	c-0.473,0-1.021,0.572-1.021,1.432v2.125h5.334v5.334h-5.334V32h5.689C61.469,32,64,29.471,64,26.668V5.334z"/>
<path id="LinkedIn__x28_alt_x29__3_" fill="#FFFFFF" d="M93.637,0h-27.27C65.061,0,64,1.029,64,2.293v27.414
	C64,30.975,65.061,32,66.367,32h27.27C94.945,32,96,30.975,96,29.707V2.293C96,1.029,94.945,0,93.637,0z M73.702,26.789h-4.835
	V12.338h4.835V26.789z M71.285,10.365h-0.032c-1.62,0-2.673-1.109-2.673-2.496c0-1.416,1.083-2.496,2.736-2.496
	c1.654,0,2.67,1.08,2.703,2.496C74.02,9.256,72.971,10.365,71.285,10.365z M91.133,26.789h-4.836v-7.73
	c0-1.945-0.699-3.27-2.447-3.27c-1.338,0-2.132,0.895-2.478,1.758c-0.13,0.309-0.164,0.738-0.164,1.172v8.07h-4.83
	c0,0,0.062-13.094,0-14.451h4.83v2.051C81.85,13.404,82.996,12,85.564,12c3.182,0,5.567,2.064,5.567,6.504L91.133,26.789
	L91.133,26.789z M81.18,14.434c0.008-0.014,0.021-0.029,0.028-0.045v0.045H81.18z"/>
<path id="Twitter__x28_alt_x29__1_" fill="#55ACEE" d="M28.375,46.777c1.795-0.147,3.016-0.965,3.484-2.073
	c-0.648,0.397-2.66,0.836-3.773,0.418c-0.053-0.258-0.113-0.508-0.172-0.729c-0.85-3.113-3.746-5.617-6.785-5.313
	c0.244-0.099,0.494-0.195,0.742-0.277c0.336-0.116,2.299-0.438,1.988-1.133c-0.262-0.604-2.656,0.461-3.109,0.603
	c0.596-0.224,1.582-0.605,1.688-1.293c-0.914,0.125-1.809,0.555-2.502,1.188c0.25-0.273,0.439-0.602,0.479-0.953
	c-2.435,1.555-3.856,4.691-5.007,7.734c-0.904-0.879-1.705-1.566-2.423-1.949c-2.017-1.082-4.429-2.207-8.212-3.613
	c-0.115,1.25,0.618,2.918,2.737,4.023c-0.458-0.063-1.298,0.074-1.968,0.234c0.272,1.438,1.165,2.616,3.583,3.188
	c-1.104,0.074-1.675,0.324-2.194,0.867c0.505,0.996,1.732,2.172,3.941,1.93c-2.455,1.059-1,3.02,0.996,2.727
	C8.462,55.872,3.086,55.614,0,52.669c8.056,10.979,25.57,6.496,28.18-4.082c1.957,0.021,3.109-0.68,3.82-1.44
	C30.873,47.337,29.24,47.139,28.375,46.777z"/>
<path id="Facebook__x28_alt_x29__1_" fill="#3B5998" d="M64,37.334C64,34.533,61.469,32,58.668,32H37.335
	C34.531,32,32,34.533,32,37.334v21.334C32,61.471,34.531,64,37.335,64H48V51.914h-3.91V46.58H48V44.5c0-3.582,2.691-6.811,6-6.811
	h4.313v5.334H54c-0.473,0-1.021,0.571-1.021,1.432v2.125h5.334v5.334h-5.334V64h5.689C61.469,64,64,61.471,64,58.668V37.334z"/>
<path id="LinkedIn__x28_alt_x29__1_" fill="#287BBC" d="M93.637,32h-27.27C65.061,32,64,33.029,64,34.293v27.414
	C64,62.975,65.061,64,66.367,64h27.27C94.945,64,96,62.975,96,61.707V34.293C96,33.029,94.945,32,93.637,32z M73.702,58.789h-4.835
	V44.338h4.835V58.789z M71.285,42.365h-0.032c-1.62,0-2.673-1.109-2.673-2.496c0-1.416,1.083-2.496,2.736-2.496
	c1.654,0,2.67,1.08,2.703,2.496C74.02,41.256,72.971,42.365,71.285,42.365z M91.133,58.789h-4.836v-7.73
	c0-1.944-0.699-3.27-2.447-3.27c-1.338,0-2.132,0.895-2.478,1.758c-0.13,0.309-0.164,0.738-0.164,1.172v8.07h-4.83
	c0,0,0.062-13.094,0-14.451h4.83v2.051C81.85,45.404,82.996,44,85.564,44c3.182,0,5.567,2.064,5.567,6.504L91.133,58.789
	L91.133,58.789z M81.18,46.434c0.008-0.014,0.021-0.028,0.028-0.045v0.045H81.18z"/>
<path id="YouTube_2_" fill="#FF0000" d="M121.147,55.406h-1.758l0.008-1.02c0-0.453,0.375-0.824,0.828-0.824h0.111
	c0.457,0,0.83,0.371,0.83,0.824L121.147,55.406z M114.56,53.221c-0.445,0-0.811,0.301-0.811,0.666v4.961
	c0,0.363,0.365,0.664,0.811,0.664c0.447,0,0.811-0.301,0.811-0.664v-4.961C115.37,53.521,115.007,53.221,114.56,53.221z
	 M125.257,50.445v9.439c0,2.262-1.963,4.115-4.363,4.115h-17.939c-2.402,0-4.365-1.854-4.365-4.115v-9.439
	c0-2.264,1.963-4.115,4.365-4.115h17.939C123.294,46.33,125.257,48.182,125.257,50.445z M104.149,60.908l-0.003-9.939h2.226v-1.475
	l-5.928-0.01v1.449l1.852,0.004v9.971H104.149z M110.816,52.445h-1.854v5.311c0,0.77,0.047,1.152-0.001,1.289
	c-0.152,0.41-0.83,0.846-1.094,0.041c-0.045-0.141-0.006-0.564-0.006-1.295l-0.007-5.346h-1.845l0.005,5.264
	c0.002,0.807-0.018,1.408,0.007,1.682c0.045,0.48,0.028,1.045,0.476,1.365c0.835,0.604,2.435-0.09,2.834-0.947l-0.005,1.096h1.49
	V52.445z M116.747,58.527l-0.006-4.418c0-1.684-1.258-2.695-2.969-1.332l0.008-3.285l-1.854,0.004l-0.008,11.338l1.522-0.021
	l0.14-0.709C115.526,61.891,116.753,60.67,116.747,58.527z M122.552,57.941l-1.393,0.008c0,0.055,0,0.117,0,0.188v0.777
	c0,0.414-0.344,0.75-0.762,0.75h-0.273c-0.418,0-0.758-0.336-0.758-0.75v-0.09v-0.852v-1.102h3.184v-1.199
	c0-0.875-0.023-1.752-0.096-2.252c-0.229-1.584-2.451-1.834-3.572-1.023c-0.355,0.254-0.621,0.594-0.781,1.049
	c-0.156,0.455-0.234,1.078-0.234,1.867v2.633C117.866,62.328,123.185,61.709,122.552,57.941z M115.421,43.637
	c0.094,0.234,0.242,0.422,0.445,0.563c0.199,0.145,0.453,0.215,0.758,0.215c0.268,0,0.504-0.074,0.711-0.225
	c0.203-0.148,0.379-0.369,0.52-0.664l-0.035,0.729h2.066v-8.793h-1.625v6.844c0,0.371-0.307,0.672-0.68,0.672
	c-0.371,0-0.68-0.301-0.68-0.672v-6.844h-1.695v5.93c0,0.756,0.012,1.26,0.035,1.514C115.267,43.158,115.327,43.402,115.421,43.637z
	 M109.156,38.672c0-0.842,0.07-1.502,0.211-1.977c0.139-0.473,0.393-0.852,0.76-1.141c0.365-0.289,0.83-0.432,1.4-0.432
	c0.479,0,0.887,0.096,1.231,0.277c0.343,0.186,0.608,0.424,0.791,0.721c0.188,0.299,0.314,0.604,0.383,0.918
	c0.07,0.314,0.105,0.793,0.105,1.436v2.225c0,0.816-0.035,1.416-0.098,1.797c-0.063,0.383-0.199,0.734-0.406,1.066
	c-0.208,0.328-0.475,0.574-0.798,0.732c-0.324,0.158-0.697,0.234-1.119,0.234c-0.471,0-0.87-0.064-1.196-0.199
	c-0.327-0.137-0.582-0.34-0.762-0.611c-0.183-0.27-0.311-0.602-0.388-0.984c-0.077-0.385-0.115-0.963-0.115-1.734V38.672z
	 M110.774,42.164c0,0.5,0.372,0.904,0.82,0.904c0.452,0,0.821-0.404,0.821-0.904v-4.68c0-0.496-0.369-0.9-0.821-0.9
	c-0.448,0-0.82,0.404-0.82,0.9V42.164z M105.054,44.527h1.95l0.002-6.738l2.304-5.777h-2.131l-1.225,4.289L104.711,32H102.6
	l2.452,5.789L105.054,44.527z"/>
<path id="YouTube_1_" fill="#FFFFFF" d="M121.147,23.406h-1.758l0.008-1.02c0-0.453,0.375-0.824,0.828-0.824h0.111
	c0.457,0,0.83,0.371,0.83,0.824L121.147,23.406z M114.56,21.221c-0.445,0-0.811,0.301-0.811,0.666v4.961
	c0,0.363,0.365,0.664,0.811,0.664c0.447,0,0.811-0.301,0.811-0.664v-4.961C115.37,21.521,115.007,21.221,114.56,21.221z
	 M125.257,18.445v9.439c0,2.262-1.963,4.115-4.363,4.115h-17.939c-2.402,0-4.365-1.854-4.365-4.115v-9.439
	c0-2.264,1.963-4.115,4.365-4.115h17.939C123.294,14.33,125.257,16.182,125.257,18.445z M104.149,28.908l-0.003-9.939h2.226v-1.475
	l-5.928-0.01v1.449l1.852,0.004v9.971H104.149z M110.816,20.445h-1.854v5.311c0,0.77,0.047,1.152-0.001,1.289
	c-0.152,0.41-0.83,0.846-1.094,0.041c-0.045-0.141-0.006-0.564-0.006-1.295l-0.007-5.346h-1.845l0.005,5.264
	c0.002,0.807-0.018,1.408,0.007,1.682c0.045,0.48,0.028,1.045,0.476,1.365c0.835,0.604,2.435-0.09,2.834-0.947l-0.005,1.096h1.49
	V20.445z M116.747,26.527l-0.006-4.418c0-1.684-1.258-2.695-2.969-1.332l0.008-3.285l-1.854,0.004l-0.008,11.338l1.522-0.021
	l0.14-0.709C115.526,29.891,116.753,28.67,116.747,26.527z M122.552,25.941l-1.393,0.008c0,0.055,0,0.117,0,0.188v0.777
	c0,0.414-0.344,0.75-0.762,0.75h-0.273c-0.418,0-0.758-0.336-0.758-0.75v-0.09v-0.852v-1.102h3.184v-1.199
	c0-0.875-0.023-1.752-0.096-2.252c-0.229-1.584-2.451-1.834-3.572-1.023c-0.355,0.254-0.621,0.594-0.781,1.049
	c-0.156,0.455-0.234,1.078-0.234,1.867v2.633C117.866,30.328,123.185,29.709,122.552,25.941z M115.421,11.637
	c0.094,0.234,0.242,0.422,0.445,0.563c0.199,0.145,0.453,0.215,0.758,0.215c0.268,0,0.504-0.074,0.711-0.225
	c0.203-0.148,0.379-0.369,0.52-0.664l-0.035,0.729h2.066V3.461h-1.625v6.844c0,0.371-0.307,0.672-0.68,0.672
	c-0.371,0-0.68-0.301-0.68-0.672V3.461h-1.695v5.93c0,0.756,0.012,1.26,0.035,1.514C115.267,11.158,115.327,11.402,115.421,11.637z
	 M109.156,6.672c0-0.842,0.07-1.502,0.211-1.977c0.139-0.473,0.393-0.852,0.76-1.141c0.365-0.289,0.83-0.432,1.4-0.432
	c0.479,0,0.887,0.096,1.231,0.277c0.343,0.186,0.608,0.424,0.791,0.721c0.188,0.299,0.314,0.604,0.383,0.918
	c0.07,0.314,0.105,0.793,0.105,1.436v2.225c0,0.816-0.035,1.416-0.098,1.797c-0.063,0.383-0.199,0.734-0.406,1.066
	c-0.208,0.328-0.475,0.574-0.798,0.732c-0.324,0.158-0.697,0.234-1.119,0.234c-0.471,0-0.87-0.064-1.196-0.199
	c-0.327-0.137-0.582-0.34-0.762-0.611c-0.183-0.27-0.311-0.602-0.388-0.984c-0.077-0.385-0.115-0.963-0.115-1.734V6.672z
	 M110.774,10.164c0,0.5,0.372,0.904,0.82,0.904c0.452,0,0.821-0.404,0.821-0.904v-4.68c0-0.496-0.369-0.9-0.821-0.9
	c-0.448,0-0.82,0.404-0.82,0.9V10.164z M105.054,12.527h1.95l0.002-6.738l2.304-5.777h-2.131l-1.225,4.289L104.711,0H102.6
	l2.452,5.789L105.054,12.527z"/>
</svg>
