<?xml version="1.0" encoding="utf-8"?>
<!-- Generator: Adobe Illustrator 14.0.0, SVG Export Plug-In . SVG Version: 6.00 Build 43363)  -->
<!DOCTYPE svg PUBLIC "-//W3C//DTD SVG 1.1//EN" "http://www.w3.org/Graphics/SVG/1.1/DTD/svg11.dtd">
<svg version="1.1" id="Layer_1" xmlns="http://www.w3.org/2000/svg" xmlns:xlink="http://www.w3.org/1999/xlink" x="0px" y="0px"
	 width="1800px" height="100px" viewBox="0 0 1800 100" enable-background="new 0 0 1800 100" xml:space="preserve">
<path fill="#0E0F0F" d="M103.912,30.097c-0.831-0.021-7.172,0.267-13.681,0.581c-0.527-2.184-2.488-3.807-4.833-3.807
	c-2.514,0-4.586,1.865-4.922,4.287c-1.415,0.07-2.627,0.131-3.53,0.176c-0.532-0.75-1.482-1.257-2.343-1.257
	c-1.643,0-2.564,1.265-2.752,2.751c-0.39,3.085,0.136,6.489,2.64,8.596c2.238,1.882,5.18,2.284,8.011,2.082
	c1.53,4.225,1.8,8.746,3.227,12.997c-1.632,6.942-2.876,13.945-3.788,21.026c-0.622,4.828,6.955,4.77,7.568,0
	c0.551-4.27,1.271-8.508,2.129-12.721c1.719,4.893,4.104,9.541,7.219,13.711c2.882,3.861,9.457,0.096,6.535-3.819
	c-3.961-5.304-6.574-11.233-8.129-17.587c0.301-0.98,0.328-2.029-0.039-3.035c-1.621-4.441-1.818-9.213-3.44-13.654
	c-0.937-2.567-3.121-4.414-5.794-4.333c1.43-0.874,2.388-2.445,2.388-4.243c0-0.012-0.001-0.024-0.002-0.036l11.761-0.129
	c-1.32,6.006,6.243,6.37,6.349,4.855C108.608,34.682,105.69,30.144,103.912,30.097z M83.999,37.86
	c-0.073,0.001-0.146,0.003-0.222,0.013c-1.915,0.251-4.07,0.456-5.689-0.579c-1.058-0.676-0.916-3.007-0.732-4.465
	c0.038-0.303,0.001-0.596-0.089-0.872l3.161-0.035c0.038,2.698,2.224,4.874,4.926,4.899C84.862,37.1,84.405,37.451,83.999,37.86z"/>
<path d="M254.88,69.406c-0.514,0.514-0.929,1.518-0.929,2.244v9.447h5.484V66.165c0-0.726-0.415-0.899-0.929-0.387L254.88,69.406z"
	/>
<path d="M278.973,60.455c-0.513,0.513-0.929,1.516-0.929,2.244v18.399h5.485V57.208c0-0.727-0.416-0.898-0.93-0.385L278.973,60.455z
	"/>
<path d="M287.001,52.413c-0.513,0.514-0.93,1.518-0.93,2.242v26.442h5.1V49.564c0-0.725-0.417-0.899-0.93-0.385L287.001,52.413z"/>
<path d="M271.104,68.321c0,0-0.246,0.246-0.547,0.549c-0.301,0.302-0.545,1.138-0.545,1.861v10.366h5.485V65.247
	c0-0.725-0.417-0.899-0.93-0.386L271.104,68.321z"/>
<path d="M262.912,65.535c-0.514-0.512-0.931-0.34-0.931,0.385v15.178h5.485v-9.704c0-0.727-0.395-1.707-0.882-2.192l-0.881-0.878
	L262.912,65.535z"/>
<path d="M247.977,76.314l-1.771,1.772c-0.513,0.514-0.928,1.396-0.928,1.971v1.041h6.123v-6.9c0-0.725-0.416-0.897-0.929-0.383
	L247.977,76.314z"/>
<path d="M297.786,49.324c0.512,0.514,0.929,0.341,0.929-0.385V30.162c0-1.345-1.287-2.522-2.624-2.522h-18.668
	c-0.725,0-0.899,0.417-0.385,0.93l6.641,6.646l-2.709,2.697l-12.562,12.574l-6.645-6.644c-0.513-0.514-1.344-0.512-1.858,0
	l-18.476,18.492c-2.053,2.053-2.053,5.382,0,7.434l0.128,0.13c2.053,2.054,5.382,2.054,7.434,0l11.841-11.849l6.644,6.638
	c0.514,0.512,1.346,0.512,1.859,0l21.903-21.907L297.786,49.324z"/>
<path d="M433.893,29.736c0-4.652,3.771-8.423,8.424-8.423c4.651,0,8.423,3.771,8.423,8.423c0,4.652-3.772,8.423-8.423,8.423
	C437.664,38.16,433.893,34.388,433.893,29.736z M446.365,43.898c0.084-1.834,0.715-3.532,1.731-4.936
	c-0.713-0.149-1.45-0.229-2.206-0.229h-7.147c-0.753,0-1.49,0.079-2.199,0.227c1.081,1.5,1.728,3.331,1.738,5.313
	c1.314-0.722,2.822-1.134,4.423-1.134C444.005,43.139,445.242,43.41,446.365,43.898z M447.791,44.654
	c2.446,1.534,4.163,4.129,4.476,7.144c0.997,0.465,2.105,0.734,3.279,0.734c4.286,0,7.76-3.475,7.76-7.761
	c0-4.287-3.474-7.761-7.76-7.761C451.298,37.01,447.854,40.423,447.791,44.654z M442.706,60.544c4.285,0,7.76-3.475,7.76-7.76
	c0-4.286-3.476-7.761-7.76-7.761c-4.286,0-7.762,3.475-7.762,7.761C434.944,57.069,438.42,60.544,442.706,60.544z M445.998,61.073
	h-6.585c-5.479,0-9.938,4.457-9.938,9.937v8.055l0.021,0.127l0.554,0.172c5.229,1.633,9.772,2.18,13.512,2.18
	c7.302,0,11.536-2.082,11.797-2.216l0.519-0.263h0.055V71.01C455.933,65.53,451.478,61.073,445.998,61.073z M458.838,53.062h-6.535
	c-0.07,2.615-1.186,4.97-2.952,6.663c4.87,1.447,8.434,5.963,8.434,11.298v2.481c6.451-0.236,10.169-2.064,10.415-2.188l0.519-0.264
	h0.055v-8.055C468.774,57.519,464.317,53.062,458.838,53.062z M460.585,36.846c2.447,1.534,4.163,4.129,4.476,7.143
	c0.997,0.466,2.105,0.734,3.278,0.734c4.287,0,7.762-3.474,7.762-7.76c0-4.287-3.475-7.761-7.762-7.761
	C464.093,29.202,460.65,32.615,460.585,36.846z M471.632,45.253h-6.533c-0.071,2.614-1.188,4.969-2.952,6.661
	c4.87,1.448,8.434,5.965,8.434,11.3v2.481c6.45-0.237,10.17-2.063,10.414-2.188l0.519-0.263h0.056v-8.057
	C481.57,49.71,477.112,45.253,471.632,45.253z M429.089,52.532c1.518,0,2.93-0.443,4.127-1.198c0.381-2.482,1.711-4.65,3.611-6.126
	c0.007-0.146,0.021-0.29,0.021-0.437c0-4.287-3.476-7.761-7.759-7.761c-4.288,0-7.761,3.474-7.761,7.761
	C421.328,49.058,424.801,52.532,429.089,52.532z M436.059,59.725c-1.757-1.685-2.869-4.026-2.951-6.626
	c-0.242-0.02-0.481-0.037-0.729-0.037h-6.584c-5.479,0-9.937,4.457-9.937,9.938v8.054l0.021,0.126l0.555,0.173
	c4.194,1.311,7.938,1.914,11.19,2.102v-2.431C427.625,65.688,431.187,61.172,436.059,59.725z"/>
<path d="M658.037,52.211v18.821c0,1.531-1.241,2.777-2.775,2.777h-6.015c-0.406,0-0.804-0.091-1.173-0.262l-4.843-2.254v3.054
	c0,1.534-1.243,2.777-2.777,2.777h-37.715c-1.534,0-2.775-1.243-2.775-2.777v-25.45c0-1.536,1.241-2.777,2.775-2.777h37.715
	c1.534,0,2.777,1.241,2.777,2.777v3.054l4.843-2.255c0.366-0.173,0.767-0.259,1.173-0.259h6.015
	C656.796,49.435,658.037,50.679,658.037,52.211z M631.725,43.697c4.557,0,8.264-3.708,8.264-8.267s-3.708-8.271-8.264-8.271
	c-4.56,0-8.271,3.711-8.271,8.271S627.166,43.697,631.725,43.697z M609.733,43.697c4.558,0,8.267-3.708,8.267-8.267
	s-3.708-8.271-8.267-8.271c-4.557,0-8.27,3.711-8.27,8.271S605.176,43.697,609.733,43.697z"/>
<rect x="784.084" y="29.146" fill="none" width="51.714" height="51.715"/>
<g>
	<path d="M822.371,53.377h3.284c-0.134-1.602-0.66-2.279-0.909-2.519C823.759,49.914,822.683,51.48,822.371,53.377z"/>
	<path d="M804.304,58.111c0,0.982,0.326,1.588,0.853,1.588c0.846,0,1.119-0.959,1.196-1.371c0.043-0.205,0.068-0.424,0.068-0.621
		v-1.868C804.304,56.115,804.304,57.594,804.304,58.111z"/>
	<path d="M835.32,56.705l-3.021-4.767l1.789-5.349c0.245-0.73-0.058-1.531-0.723-1.915l-4.891-2.816l-0.899-5.572
		c-0.122-0.757-0.764-1.325-1.532-1.356l-5.637-0.221l-3.388-4.515c-0.461-0.619-1.292-0.824-1.985-0.488l-5.093,2.424l-5.096-2.424
		c-0.692-0.331-1.524-0.125-1.985,0.488l-3.387,4.515l-5.637,0.221c-0.767,0.031-1.41,0.599-1.529,1.356l-0.9,5.572l-4.889,2.816
		c-0.666,0.384-0.971,1.183-0.726,1.915l1.79,5.349l-3.018,4.767c-0.412,0.648-0.309,1.5,0.247,2.029l4.071,3.904l-0.458,5.621
		c-0.063,0.77,0.423,1.471,1.164,1.688l5.42,1.561l2.208,5.193c0.298,0.705,1.058,1.117,1.81,0.955l5.528-1.135l4.366,3.574
		c0.296,0.24,0.66,0.365,1.024,0.365c0.365,0,0.727-0.125,1.025-0.365l4.364-3.574l5.528,1.135c0.75,0.156,1.512-0.246,1.809-0.955
		l2.208-5.193l5.422-1.561c0.737-0.213,1.224-0.918,1.161-1.688l-0.456-5.621l4.071-3.904
		C835.628,58.205,835.732,57.354,835.32,56.705z M794.791,62.766c-1.162,0-2.359-0.361-3.051-0.93
		c-0.239-0.195-0.332-0.516-0.237-0.807l0.518-1.574c0.071-0.221,0.242-0.396,0.459-0.473c0.216-0.078,0.459-0.047,0.653,0.078
		c0.416,0.27,1.085,0.559,1.709,0.559c0.759,0,1.179-0.408,1.179-1.154c0-0.613-0.097-1.115-1.353-1.961
		c-1.261-0.797-2.959-2.129-2.959-4.336c0-2.5,1.869-4.382,4.352-4.382c0.955,0,1.846,0.256,2.723,0.788
		c0.298,0.181,0.434,0.547,0.318,0.879l-0.541,1.573c-0.075,0.219-0.249,0.392-0.469,0.463c-0.222,0.074-0.463,0.042-0.654-0.091
		c-0.488-0.332-0.877-0.468-1.346-0.468c-0.869,0-0.937,0.719-0.937,0.939c0,0.486,0.058,0.783,1.305,1.637
		c1.291,0.832,3.035,2.227,3.035,4.605C799.497,60.896,797.605,62.766,794.791,62.766z M809.356,62.602c-0.008,0-0.014,0-0.021,0
		h-1.872c-0.313,0-0.588-0.193-0.695-0.475c-0.622,0.451-1.359,0.697-2.154,0.697c-2.226,0-3.841-1.893-3.841-4.496
		c0-3.101,2.167-5.194,5.585-5.486c-0.061-1.758-0.667-1.91-1.339-1.91c-0.636,0-1.223,0.186-1.746,0.547
		c-0.195,0.133-0.446,0.168-0.667,0.094c-0.224-0.078-0.4-0.256-0.469-0.482l-0.459-1.467c-0.098-0.307,0.016-0.64,0.277-0.83
		c0.702-0.503,2.055-1.008,3.5-1.008c2.048,0,4.493,0.936,4.493,5.388v5.699c0,1.121,0.035,2.02,0.104,2.672
		c0.043,0.094,0.068,0.203,0.068,0.311C810.12,62.275,809.736,62.629,809.356,62.602z M816.351,61.855
		c0,0.412-0.334,0.746-0.746,0.746h-2.09c-0.412,0-0.746-0.334-0.746-0.746V45.193c0-0.412,0.334-0.746,0.746-0.746h2.09
		c0.412,0,0.746,0.334,0.746,0.746V61.855z M828.347,55.539c-0.031,0.385-0.354,0.688-0.744,0.688h-5.316
		c0.194,3.396,1.727,3.396,2.327,3.396c0.874,0,1.474-0.221,1.823-0.404c0.204-0.109,0.449-0.117,0.657-0.02
		c0.212,0.096,0.367,0.285,0.417,0.51l0.354,1.52c0.078,0.334-0.077,0.678-0.38,0.832c-0.844,0.441-2.087,0.709-3.248,0.709
		c-3.457,0-5.522-2.746-5.522-7.341c0-4.57,2.088-7.641,5.196-7.641c2.727,0,4.492,2.551,4.492,6.501
		C828.401,54.828,828.375,55.199,828.347,55.539z"/>
</g>
<path d="M1347.586,73.195c-14.474,0-22.777-2.068-22.777-2.068c0-12.346,10.346-8.41,10.346-28.923c0-5.418,3.459-7.464,8.29-8.089
	c-0.005-0.079-0.013-0.156-0.013-0.236c0.001-2.285,1.854-4.138,4.14-4.138c2.285,0,4.139,1.853,4.139,4.138
	c0,0.076-0.008,0.15-0.011,0.226c4.849,0.613,8.288,2.65,8.288,8.1c0,20.634,10.347,16.652,10.347,28.923
	C1370.334,71.127,1362.058,73.195,1347.586,73.195z M1341.707,75.143c0.819,2.469,3.12,4.262,5.864,4.262
	c2.743,0,5.045-1.793,5.864-4.26c-1.822,0.072-3.764,0.119-5.85,0.119C1345.489,75.264,1343.538,75.217,1341.707,75.143z"/>
<g>
	<path d="M1163.295,37.636h-17.651c-1.819,0-3.3,1.448-3.3,3.229v34.145c0,1.78,1.48,3.228,3.3,3.228h17.65
		c1.82,0,3.3-1.447,3.3-3.228V40.866C1166.596,39.085,1165.114,37.636,1163.295,37.636z M1164.407,75.011
		c0,0.573-0.499,1.04-1.112,1.04h-17.651c-0.613,0-1.111-0.467-1.111-1.04v-5.159h19.875V75.011z M1164.407,42.256h-19.875v-1.391
		c0-0.574,0.499-1.041,1.111-1.041h17.65c0.614,0,1.111,0.467,1.111,1.041v1.391H1164.407z"/>
	<circle cx="1154.469" cy="72.662" r="2.234"/>
	<path d="M1193.049,30.768h-32.82c-1.943,0-3.526,1.582-3.526,3.526v2.612h2.918v-2.612c0-0.335,0.272-0.609,0.608-0.609h32.819
		c0.337,0,0.608,0.273,0.608,0.609v21.15c0,0.335-0.271,0.608-0.608,0.608h-25.384v2.918h7.517v1.275h-4.284
		c-0.806,0-1.459,0.655-1.459,1.459c0,0.805,0.653,1.459,1.459,1.459h11.396c0.806,0,1.459-0.654,1.459-1.459
		c0-0.804-0.653-1.459-1.459-1.459h-4.193v-1.275h14.95c1.944,0,3.526-1.582,3.526-3.526v-21.15
		C1196.575,32.35,1194.993,30.768,1193.049,30.768z"/>
</g>
<g>
	<path d="M1534.75,63.791c3.645-1.535,6.521-3.627,8.628-6.273c2.108-2.646,3.163-5.528,3.163-8.646
		c0-3.117-1.055-5.999-3.163-8.646c-2.107-2.646-4.983-4.738-8.628-6.274c-3.645-1.537-7.607-2.305-11.893-2.305
		c-4.283,0-8.247,0.769-11.892,2.305c-3.645,1.537-6.521,3.628-8.628,6.274c-2.108,2.646-3.163,5.528-3.163,8.645
		c0,2.669,0.797,5.182,2.389,7.536c1.593,2.355,3.779,4.341,6.561,5.955c-0.225,0.539-0.454,1.031-0.689,1.48
		c-0.236,0.448-0.517,0.88-0.842,1.296c-0.325,0.414-0.576,0.739-0.757,0.974c-0.179,0.236-0.471,0.566-0.875,0.993
		c-0.404,0.426-0.661,0.705-0.773,0.841c0-0.022-0.045,0.027-0.134,0.15c-0.091,0.125-0.142,0.181-0.152,0.169
		c-0.012-0.012-0.057,0.044-0.135,0.167c-0.078,0.125-0.117,0.187-0.117,0.187l-0.085,0.167c-0.033,0.067-0.056,0.135-0.066,0.202
		c-0.012,0.066-0.018,0.14-0.018,0.219c0,0.078,0.011,0.151,0.034,0.217c0.045,0.292,0.174,0.527,0.387,0.707
		c0.213,0.181,0.443,0.269,0.689,0.269h0.102c1.121-0.157,2.085-0.336,2.893-0.538c3.454-0.896,6.571-2.332,9.353-4.306
		c2.019,0.359,3.991,0.538,5.92,0.538C1527.141,66.095,1531.105,65.326,1534.75,63.791z M1515.928,60.982l-1.48,1.043
		c-0.627,0.426-1.322,0.864-2.085,1.313l1.178-2.826l-3.264-1.885c-2.153-1.255-3.823-2.735-5.013-4.439
		c-1.188-1.705-1.782-3.477-1.782-5.316c0-2.288,0.881-4.429,2.641-6.425s4.132-3.577,7.115-4.744c2.981-1.166,6.189-1.75,9.62-1.75
		c3.432,0,6.64,0.583,9.621,1.75c2.982,1.167,5.355,2.748,7.115,4.744c1.761,1.996,2.641,4.138,2.641,6.425s-0.88,4.429-2.641,6.425
		c-1.76,1.996-4.133,3.578-7.115,4.744c-2.981,1.166-6.189,1.748-9.621,1.748c-1.682,0-3.397-0.156-5.146-0.471L1515.928,60.982z"/>
	<path d="M1557.069,65.035c1.593-2.344,2.389-4.862,2.389-7.553c0-2.759-0.841-5.338-2.522-7.737s-3.97-4.396-6.863-5.988
		c0.516,1.682,0.773,3.386,0.773,5.113c0,3.004-0.75,5.853-2.254,8.543c-1.502,2.691-3.656,5.069-6.459,7.133
		c-2.602,1.884-5.563,3.33-8.882,4.339c-3.317,1.009-6.783,1.516-10.394,1.516c-0.673,0-1.66-0.046-2.961-0.136
		c4.509,2.96,9.801,4.441,15.879,4.441c1.929,0,3.901-0.181,5.92-0.538c2.781,1.974,5.898,3.408,9.353,4.306
		c0.808,0.202,1.771,0.381,2.893,0.538c0.27,0.021,0.517-0.056,0.741-0.236c0.225-0.179,0.37-0.425,0.438-0.739
		c-0.011-0.133,0-0.208,0.034-0.218c0.032-0.011,0.026-0.084-0.018-0.219s-0.067-0.201-0.067-0.201l-0.083-0.169
		c-0.023-0.044-0.062-0.105-0.118-0.185c-0.057-0.078-0.101-0.135-0.135-0.169c-0.033-0.032-0.083-0.089-0.15-0.167
		c-0.068-0.077-0.112-0.129-0.135-0.151c-0.112-0.135-0.37-0.415-0.774-0.84c-0.403-0.427-0.694-0.757-0.874-0.993
		c-0.18-0.234-0.432-0.56-0.757-0.975s-0.606-0.848-0.842-1.297c-0.235-0.447-0.465-0.941-0.688-1.479
		C1553.291,69.359,1555.479,67.38,1557.069,65.035z"/>
</g>
<g id="Layer_1_1_">
	<g>
		<path d="M1729.093,40.823c-0.406-0.466-0.989-0.734-1.605-0.734h-29.364l-0.415-2.474c-0.17-1.024-1.057-1.776-2.096-1.776h-4.781
			c-1.175,0-2.125,0.95-2.125,2.125c0,1.176,0.95,2.125,2.125,2.125h2.979l3.955,23.724c0.017,0.096,0.064,0.175,0.096,0.264
			c0.033,0.112,0.061,0.219,0.112,0.322c0.07,0.139,0.162,0.257,0.257,0.379c0.066,0.084,0.125,0.164,0.202,0.239
			c0.122,0.114,0.266,0.194,0.408,0.274c0.083,0.045,0.151,0.105,0.238,0.139c0.247,0.102,0.507,0.16,0.781,0.16
			c0.002,0,23.377,0,23.377,0c1.174,0,2.125-0.951,2.125-2.125c0-1.176-0.951-2.125-2.125-2.125h-21.574l-0.353-2.125h24.052
			c1.058,0,1.954-0.779,2.104-1.822l2.125-14.876C1729.679,41.904,1729.496,41.286,1729.093,40.823z M1725.038,44.339l-0.605,4.25
			h-7.57v-4.25H1725.038z M1714.737,44.339v4.25h-6.375v-4.25H1714.737z M1714.737,50.714v4.25h-6.375v-4.25H1714.737z
			 M1706.237,44.339v4.25h-6.375c-0.112,0-0.216,0.032-0.315,0.063l-0.719-4.313H1706.237z M1699.891,50.714h6.347v4.25h-5.637
			L1699.891,50.714z M1716.862,54.964v-4.25h7.263l-0.605,4.25H1716.862z"/>
		<circle cx="1703.05" cy="70.902" r="3.187"/>
		<circle cx="1722.175" cy="70.902" r="3.187"/>
	</g>
</g>
<g id="nyt_x5F_exporter_x5F_info" display="none">
</g>
<g id="note">
	<path fill="#333333" d="M1015.062,41.625l-9.828-9.829c-0.614-0.614-1.45-0.958-2.316-0.958h-34.4c-2.71,0-4.914,2.204-4.914,4.915
		v39.314c0,2.711,2.204,4.914,4.914,4.914h42.591c2.71,0,4.914-2.203,4.914-4.914V43.943
		C1016.021,43.072,1015.676,42.239,1015.062,41.625z M1012.745,75.066c0,0.906-0.732,1.639-1.638,1.639h-42.591
		c-0.905,0-1.638-0.732-1.638-1.639V35.752c0-0.906,0.732-1.638,1.638-1.638h32.762v6.552h-0.003c0,2.715,2.201,4.914,4.914,4.914
		h1.639h4.917V75.066z M1007.828,43.943h-1.639c-1.805,0-3.276-1.47-3.276-3.276h0.004v-6.552l9.828,9.829H1007.828z"/>
	<path fill="#333333" d="M988.993,42.305h8.19c0.451,0,0.818-0.367,0.818-0.819c0-0.452-0.367-0.819-0.818-0.819h-8.19
		c-0.451,0-0.819,0.366-0.819,0.819C988.174,41.939,988.542,42.305,988.993,42.305z"/>
	<path fill="#333333" d="M988.993,47.219h8.19c0.451,0,0.818-0.367,0.818-0.819c0-0.452-0.367-0.819-0.818-0.819h-8.19
		c-0.451,0-0.819,0.367-0.819,0.819C988.174,46.852,988.542,47.219,988.993,47.219z"/>
	<path fill="#333333" d="M988.174,51.314c0,0.451,0.368,0.818,0.819,0.818h19.657c0.451,0,0.818-0.367,0.818-0.818
		c0-0.452-0.367-0.819-0.818-0.819h-19.657C988.542,50.495,988.174,50.861,988.174,51.314z"/>
	<path fill="#333333" d="M1008.65,60.324h-37.677c-0.451,0-0.819,0.364-0.819,0.818c0,0.451,0.368,0.819,0.819,0.819h37.677
		c0.451,0,0.818-0.368,0.818-0.819C1009.469,60.688,1009.102,60.324,1008.65,60.324z"/>
	<path fill="#333333" d="M1008.65,65.238h-37.677c-0.451,0-0.819,0.364-0.819,0.818c0,0.451,0.368,0.82,0.819,0.82h37.677
		c0.451,0,0.818-0.369,0.818-0.82C1009.469,65.603,1009.102,65.238,1008.65,65.238z"/>
	<path fill="#333333" d="M1008.65,70.152h-37.677c-0.451,0-0.819,0.365-0.819,0.818c0,0.451,0.368,0.82,0.819,0.82h37.677
		c0.451,0,0.818-0.369,0.818-0.82C1009.469,70.518,1009.102,70.152,1008.65,70.152z"/>
	<path fill="#333333" d="M1008.65,55.41h-37.677c-0.451,0-0.819,0.365-0.819,0.818c0,0.454,0.368,0.818,0.819,0.818h37.677
		c0.451,0,0.818-0.367,0.818-0.818C1009.469,55.776,1009.102,55.41,1008.65,55.41z"/>
	<path fill="#333333" d="M971.793,52.133h11.467c0.905,0,1.638-0.731,1.638-1.638v-9.829c0-0.906-0.732-1.638-1.638-1.638h-11.467
		c-0.905,0-1.639,0.732-1.639,1.638v9.829C970.154,51.398,970.888,52.133,971.793,52.133z M973.431,42.305h8.19v6.552h-8.19V42.305z
		"/>
</g>
</svg>
